<?xml version="1.0" encoding="UTF-8"?>
<!DOCTYPE svg PUBLIC "-//W3C//DTD SVG 1.1//EN" "http://www.w3.org/Graphics/SVG/1.1/DTD/svg11.dtd">
<!-- Creator: CorelDRAW 2021 (64-Bit) -->
<svg xmlns="http://www.w3.org/2000/svg" xml:space="preserve" width="5.39635in" height="0.628807in" version="1.1" style="shape-rendering:geometricPrecision; text-rendering:geometricPrecision; image-rendering:optimizeQuality; fill-rule:evenodd; clip-rule:evenodd"
viewBox="0 0 6977.52 813.05"
 xmlns:xlink="http://www.w3.org/1999/xlink"
 xmlns:xodm="http://www.corel.com/coreldraw/odm/2003">
 <defs>
  <style type="text/css">
   <![CDATA[
    .fil0 {fill:white}
    .fil2 {fill:#1C180D;fill-rule:nonzero}
    .fil1 {fill:white;fill-rule:nonzero}
   ]]>
  </style>
 </defs>
 <g id="Layer_x0020_1">
  <metadata id="CorelCorpID_0Corel-Layer"/>
  <g id="_1721616468352">
   <g>
    <path class="fil0" d="M51.98 624.46c0,0 -41.14,-183.36 66.34,-308.4 107.48,-125.03 397.78,-187.41 426.03,-316.06 0,0 74.76,337.81 -107.76,517.67 -182.52,179.86 -422.7,180.66 -435.84,265.69 0,0 -20.38,-70.51 153.03,-165.19 241.65,-131.94 323.01,-276.38 323.8,-459.63 0,0 -13.75,285.88 -425.59,465.93z"/>
    <path class="fil1" d="M843.81 133.45c-11.07,0 -16.23,5.16 -16.23,16.23l0 484.06c0,11.06 5.16,16.23 16.23,16.23l79.69 0c11.07,0 16.23,-5.17 16.23,-16.23l0 -198.5 112.17 0c47.96,0 62.72,5.17 81.91,30.26l136.51 174.88c5.16,7.38 9.59,9.6 21.4,9.6l93.71 0c12.54,0 15.5,-13.28 9.6,-19.19l-151.28 -191.85c-18.44,-23.62 -36.15,-40.59 -56.07,-53.13 14.01,-11.81 28.03,-28.04 44.27,-49.44l143.15 -185.22c5.9,-7.38 2.21,-17.71 -8.86,-17.71l-92.24 0c-12.54,0 -16.23,2.21 -21.4,9.59l-128.39 169.72c-19.19,25.09 -31.73,29.52 -81.91,29.52l-102.57 0 0 -192.59c0,-11.07 -5.16,-16.23 -16.23,-16.23l-79.69 0zm759.66 111.42c-129.87,0 -174.88,40.59 -174.88,149.06l0 239.82c0,11.06 5.17,16.23 16.23,16.23l72.32 0c11.06,0 16.23,-5.17 16.23,-16.23l0 -219.16c0,-61.98 16.23,-78.22 80.43,-78.22l196.29 0c8.85,0 13.28,-4.42 13.28,-13.28l0 -64.94c0,-8.86 -4.43,-13.29 -13.28,-13.29l-206.62 0zm271.91 0c-11.07,0 -16.23,5.91 -16.23,16.24l0 372.64c0,11.06 5.17,16.23 16.23,16.23l72.32 0c10.33,0 16.23,-5.17 16.23,-16.23l0 -372.64c0,-10.33 -5.91,-16.24 -16.23,-16.24l-72.32 0zm0 -149.79c-11.07,0 -16.23,5.17 -16.23,16.23l0 70.1c0,11.07 5.17,16.97 16.23,16.97l72.32 0c11.07,0 16.23,-5.91 16.23,-16.97l0 -70.1c0,-11.07 -5.17,-16.23 -16.23,-16.23l-72.32 0zm330.95 149.79c-129.13,0 -174.88,39.11 -174.88,149.06l0 402.89c0,11.07 5.17,16.23 16.23,16.23l72.32 0c11.06,0 16.23,-5.17 16.23,-16.23l0 -146.84 276.71 0c129.13,0 175.62,-39.11 175.62,-149.05l0 -106.99c0,-109.95 -46.48,-149.06 -175.62,-149.06l-206.61 0zm-70.1 313.61l0 -143.89c0,-61.98 16.97,-78.22 80.43,-78.22l185.95 0c64.2,0 81.17,16.23 81.17,78.22l0 65.67c0,62.72 -16.97,78.22 -81.17,78.22l-266.38 0zm482.96 -313.61c-8.86,0 -13.28,4.43 -13.28,13.29l0 64.2c0,8.85 4.42,13.28 13.28,13.28l70.1 0 0 167.51c0,108.47 35.43,146.84 149.8,146.84l90.02 0c8.86,0 13.29,-4.43 13.29,-13.28l0 -64.2c0,-8.86 -4.43,-13.29 -13.29,-13.29l-72.31 0c-47.96,0 -61.98,-14.75 -61.98,-56.07l0 -167.51 129.87 0c8.85,0 13.28,-4.43 13.28,-13.28l0 -64.2c0,-8.86 -4.43,-13.29 -13.28,-13.29l-129.87 0 0 -97.4c0,-11.07 -5.9,-16.97 -16.24,-16.97l-73.04 0c-10.33,0 -16.24,5.9 -16.24,16.97l0 97.4 -70.1 0zm367.1 0c-8.85,0 -13.28,4.43 -13.28,13.29l0 64.94c0,8.86 4.43,13.28 13.28,13.28l307.71 0c63.46,0 81.17,16.97 81.17,64.2l0 7.38 -301.06 0c-79.69,0 -113.64,33.21 -113.64,101.84l0 35.42c0,76 28.78,104.78 113.64,104.78l351.24 0c43.53,0 54.6,-11.81 54.6,-59.03l0 -197.02c0,-108.48 -45.01,-149.06 -175.62,-149.06l-318.03 0zm366 317.3l-247.2 0c-31.72,0 -40.58,-6.64 -40.58,-31.73l0 -15.5c0,-22.14 8.86,-30.99 40.58,-30.99l270.08 0 0 53.86c0,17.71 -6.64,24.35 -22.87,24.35zm184.84 -317.3c-8.85,0 -13.28,4.43 -13.28,13.29l0 64.2c0,8.85 4.43,13.28 13.28,13.28l343.12 0c4.43,0 6.64,2.21 6.64,5.17l0 5.16c0,5.91 -1.48,8.86 -5.91,10.33l-327.62 126.92c-26.56,10.33 -33.21,21.4 -33.21,52.39l0 68.63c0,31.73 15.5,45.75 50.92,45.75l408.06 0c8.86,0 13.29,-4.43 13.29,-13.28l0 -64.2c0,-8.86 -4.43,-13.29 -13.29,-13.29l-343.12 0c-4.42,0 -6.64,-1.47 -6.64,-5.16l0 -5.17c0,-5.16 1.47,-8.85 5.9,-10.33l327.63 -127.65c26.56,-9.6 33.2,-21.4 33.2,-52.4l0 -67.88c0,-30.99 -15.49,-45.75 -50.92,-45.75l-408.06 0z"/>
   </g>
   <rect class="fil0" x="4269.61" y="233.35" width="2707.92" height="418.33"/>
   <path class="fil2" d="M4358.59 593.9c-10.51,0 -19.35,-3.6 -26.54,-10.79 -7.19,-7.19 -10.78,-16.04 -10.78,-26.54 0,-10.51 3.59,-19.35 10.78,-26.54 7.19,-7.19 16.04,-10.78 26.54,-10.78 10.51,0 19.36,3.59 26.54,10.78 7.19,7.19 10.79,16.04 10.79,26.54 0,10.51 -3.6,19.35 -10.79,26.54 -7.18,7.19 -16.03,10.79 -26.54,10.79zm199.08 2.07c-14.93,0 -28.27,-1.45 -40.02,-4.36 -11.76,-2.9 -22.26,-6.7 -31.53,-11.4 -9.26,-4.7 -17.35,-10.09 -24.26,-16.18 -6.91,-6.08 -12.85,-12.3 -17.83,-18.66 -11.61,-14.93 -20.05,-31.94 -25.3,-51.02l78.8 0c2.49,6.91 6.22,12.86 11.2,17.84 4.42,4.42 10.58,8.43 18.46,12.02 7.87,3.59 18.04,5.4 30.48,5.4 15.48,0 26.62,-2.56 33.39,-7.68 6.77,-5.11 10.16,-10.85 10.16,-17.21 0,-7.47 -4.22,-13.34 -12.65,-17.63 -8.43,-4.28 -19.08,-8.09 -31.94,-11.41 -12.86,-3.31 -26.68,-6.84 -41.47,-10.57 -14.8,-3.73 -28.62,-8.98 -41.48,-15.76 -12.86,-6.78 -23.5,-15.56 -31.93,-26.34 -8.44,-10.79 -12.65,-25.03 -12.65,-42.72 0,-11.89 2.7,-23.37 8.09,-34.42 5.39,-11.06 13.2,-20.81 23.43,-29.24 10.24,-8.43 22.82,-15.14 37.75,-20.11 14.93,-4.97 31.94,-7.46 51.01,-7.46 14.11,0 26.68,1.31 37.75,3.94 11.06,2.63 20.81,6.08 29.24,10.36 8.44,4.29 15.83,9.12 22.19,14.51 6.36,5.4 11.75,11 16.18,16.8 10.23,13.28 17.28,28.48 21.15,45.62l-78.8 0c-1.66,-4.7 -4.43,-8.85 -8.3,-12.44 -3.32,-3.05 -8.09,-5.88 -14.31,-8.51 -6.22,-2.63 -14.58,-3.94 -25.1,-3.94 -14.65,0 -24.88,2.14 -30.69,6.43 -5.8,4.29 -8.71,9.06 -8.71,14.31 0,5.8 2.49,10.51 7.47,14.1 4.98,3.6 11.47,6.78 19.49,9.54 8.02,2.77 17.21,5.39 27.58,7.88 10.37,2.49 20.88,5.26 31.53,8.3 10.64,3.04 21.15,6.63 31.52,10.78 10.37,4.15 19.56,9.54 27.58,16.18 8.02,6.64 14.52,14.58 19.5,23.84 4.97,9.26 7.46,20.53 7.46,33.8 0,12.45 -2.63,24.4 -7.88,35.88 -5.25,11.47 -13.06,21.63 -23.43,30.48 -10.37,8.85 -23.29,15.9 -38.77,21.16 -15.49,5.25 -33.6,7.88 -54.34,7.88zm265.44 -2.07c-16.59,0 -32,-2.91 -46.24,-8.71 -14.24,-5.81 -26.55,-13.83 -36.92,-24.06 -10.36,-10.23 -18.45,-22.33 -24.26,-36.29 -5.81,-13.97 -8.71,-28.97 -8.71,-45.01l0 -12.44 161.75 0c-2.21,-14.66 -7.26,-25.92 -15.14,-33.8 -7.88,-7.88 -18.04,-11.83 -30.48,-11.83 -7.19,0 -13.34,1.18 -18.45,3.53 -5.12,2.35 -9.19,5.05 -12.24,8.09 -3.59,3.32 -6.5,7.05 -8.71,11.2l-72.58 0c2.49,-9.96 6.91,-19.63 13.27,-29.04 6.36,-9.4 14.38,-17.76 24.05,-25.09 9.68,-7.33 20.81,-13.27 33.39,-17.83 12.58,-4.57 26.34,-6.85 41.26,-6.85 16.59,0 32.07,3.04 46.45,9.13 14.38,6.08 26.89,14.3 37.53,24.67 10.64,10.37 19.01,22.47 25.09,36.3 6.09,13.82 9.13,28.48 9.13,43.96 0,15.49 -3.04,30.14 -9.13,43.97 -6.08,13.83 -14.45,25.92 -25.09,36.29 -10.64,10.37 -23.16,18.6 -37.53,24.68 -14.38,6.09 -29.86,9.13 -46.45,9.13zm0 -55.99c11.61,0 21.22,-3.52 28.82,-10.57 7.61,-7.06 12.52,-15.28 14.73,-24.68l-87.09 0c2.21,9.4 7.12,17.62 14.72,24.68 7.6,7.05 17.21,10.57 28.82,10.57zm151.38 -165.9l70.5 0 0 29.03 4.15 0c3.87,-6.64 8.85,-12.45 14.93,-17.43 5.25,-4.42 11.89,-8.5 19.9,-12.23 8.02,-3.73 17.83,-5.6 29.45,-5.6 25.16,0 44.93,7.53 59.31,22.6 14.38,15.08 21.57,37.26 21.57,66.57l0 132.71 -70.5 0 0 -122.35c0,-12.44 -3.32,-22.12 -9.96,-29.03 -6.63,-6.91 -15.76,-10.37 -27.37,-10.37 -11.61,0 -21.43,4.29 -29.44,12.86 -8.02,8.57 -12.03,20.18 -12.03,34.83l0 114.05 -70.5 0 0 -215.66zm367.04 221.89c-16.59,0 -32,-2.91 -46.24,-8.71 -14.24,-5.81 -26.55,-13.83 -36.92,-24.06 -10.36,-10.23 -18.45,-22.33 -24.26,-36.29 -5.81,-13.97 -8.71,-28.97 -8.71,-45.01l0 -12.44 161.75 0c-2.21,-14.66 -7.26,-25.92 -15.14,-33.8 -7.88,-7.88 -18.04,-11.83 -30.49,-11.83 -7.19,0 -13.34,1.18 -18.45,3.53 -5.12,2.35 -9.2,5.05 -12.24,8.09 -3.59,3.32 -6.5,7.05 -8.71,11.2l-72.58 0c2.48,-9.96 6.91,-19.63 13.27,-29.04 6.36,-9.4 14.38,-17.76 24.05,-25.09 9.68,-7.33 20.81,-13.27 33.39,-17.83 12.58,-4.57 26.34,-6.85 41.26,-6.85 16.59,0 32.08,3.04 46.46,9.13 14.38,6.08 26.89,14.3 37.53,24.67 10.65,10.37 19.02,22.47 25.1,36.3 6.08,13.82 9.12,28.48 9.12,43.96 0,15.49 -3.04,30.14 -9.12,43.97 -6.08,13.83 -14.45,25.92 -25.1,36.29 -10.64,10.37 -23.15,18.6 -37.53,24.68 -14.38,6.09 -29.87,9.13 -46.46,9.13zm0 -55.99c11.62,0 21.23,-3.52 28.83,-10.57 7.6,-7.06 12.51,-15.28 14.73,-24.68l-87.1 0c2.21,9.4 7.12,17.62 14.73,24.68 7.6,7.05 17.21,10.57 28.82,10.57zm238.48 55.99c-13,0 -25.23,-2.63 -36.71,-7.88 -11.47,-5.26 -21.57,-12.79 -30.27,-22.61 -8.71,-9.81 -15.62,-21.77 -20.73,-35.87 -5.12,-14.1 -7.68,-30 -7.68,-47.7 0,-17.69 2.56,-33.59 7.68,-47.69 5.11,-14.1 12.02,-26.06 20.73,-35.87 8.7,-9.81 18.8,-17.35 30.27,-22.6 11.48,-5.25 23.71,-7.88 36.71,-7.88 10.78,0 20.18,1.87 28.2,5.6 8.02,3.73 14.8,7.81 20.33,12.23 6.36,4.98 11.61,10.79 15.76,17.43l4.15 0 0 -103.69 70.5 0 0 290.32 -70.5 0 0 -29.03 -4.15 0c-4.15,6.91 -9.4,12.86 -15.76,17.84 -5.53,4.42 -12.3,8.43 -20.33,12.02 -8.02,3.6 -17.41,5.4 -28.2,5.4zm22.81 -60.14c13.55,0 24.54,-4.56 32.98,-13.68 8.43,-9.13 12.65,-22.54 12.65,-40.24 0,-17.69 -4.22,-31.1 -12.65,-40.23 -8.44,-9.12 -19.43,-13.69 -32.98,-13.69 -13.55,0 -24.54,4.57 -32.97,13.69 -8.44,9.13 -12.65,22.54 -12.65,40.23 0,17.7 4.22,31.11 12.65,40.24 8.43,9.12 19.42,13.68 32.97,13.68zm157.61 -236.41l70.5 0 0 234.33 47.69 0 0 55.99 -118.2 0 0 -290.32zm250.91 296.55c-16.59,0 -32,-2.91 -46.24,-8.71 -14.24,-5.81 -26.55,-13.83 -36.92,-24.06 -10.36,-10.23 -18.45,-22.33 -24.26,-36.29 -5.81,-13.97 -8.71,-28.97 -8.71,-45.01l0 -12.44 161.75 0c-2.21,-14.66 -7.26,-25.92 -15.14,-33.8 -7.88,-7.88 -18.04,-11.83 -30.49,-11.83 -7.19,0 -13.34,1.18 -18.45,3.53 -5.12,2.35 -9.2,5.05 -12.24,8.09 -3.6,3.32 -6.5,7.05 -8.71,11.2l-72.58 0c2.48,-9.96 6.91,-19.63 13.27,-29.04 6.36,-9.4 14.38,-17.76 24.05,-25.09 9.68,-7.33 20.81,-13.27 33.39,-17.83 12.58,-4.57 26.34,-6.85 41.26,-6.85 16.59,0 32.08,3.04 46.46,9.13 14.38,6.08 26.89,14.3 37.53,24.67 10.65,10.37 19.02,22.47 25.1,36.3 6.08,13.82 9.12,28.48 9.12,43.96 0,15.49 -3.04,30.14 -9.12,43.97 -6.08,13.83 -14.45,25.92 -25.1,36.29 -10.64,10.37 -23.15,18.6 -37.53,24.68 -14.38,6.09 -29.87,9.13 -46.46,9.13zm0 -55.99c11.62,0 21.23,-3.52 28.83,-10.57 7.6,-7.06 12.51,-15.28 14.72,-24.68l-87.09 0c2.21,9.4 7.12,17.62 14.73,24.68 7.6,7.05 17.21,10.57 28.82,10.57zm151.39 -165.9l68.43 0 0 31.1 4.15 0c2.49,-6.64 6.22,-12.44 11.2,-17.42 4.15,-4.42 9.54,-8.85 16.18,-13.27 6.63,-4.43 15.07,-6.64 25.3,-6.64l21.98 0 0 68.43 -35.26 0c-12.44,0 -22.46,3.87 -30.06,11.54 -7.6,7.75 -11.4,17.9 -11.4,30.49l0 111.42 -70.5 0 0 -215.66zm271.65 0l72.58 0 35.26 153.46 18.66 0 35.26 -153.46 72.58 0 -53.91 215.66 -126.5 0 -53.91 -215.66zm250.92 149.31l97.46 -60.14c11.34,-6.91 20.94,-13.34 28.82,-19.29 7.88,-5.95 14.31,-11.61 19.29,-17 4.97,-5.4 8.57,-10.65 10.78,-15.77 2.21,-5.11 3.32,-10.57 3.32,-16.38 0,-9.4 -3.32,-17.28 -9.96,-23.64 -6.63,-6.36 -15.76,-9.54 -27.37,-9.54 -10.51,0 -18.8,1.73 -24.88,5.18 -6.08,3.46 -10.64,7.26 -13.68,11.41 -3.6,4.97 -5.95,10.51 -7.06,16.59l-78.8 0c3.04,-19.35 9.54,-36.64 19.49,-51.84 4.15,-6.35 9.26,-12.65 15.34,-18.87 6.08,-6.22 13.41,-11.75 21.98,-16.59 8.57,-4.84 18.39,-8.78 29.45,-11.82 11.06,-3.04 23.78,-4.56 38.15,-4.56 18.53,0 35.12,2.55 49.77,7.67 14.66,5.12 27.1,12.17 37.32,21.15 10.23,8.99 17.97,19.5 23.23,31.53 5.25,12.03 7.88,25.09 7.88,39.19 0,12.45 -1.87,23.85 -5.6,34.22 -3.73,10.37 -9.12,19.98 -16.18,28.83 -7.05,8.85 -15.55,17.07 -25.51,24.67 -9.95,7.61 -21.15,15 -33.59,22.19l-29.04 16.59 -16.59 6.22 0 4.15 29.04 -4.15 97.46 0 0 66.36 -240.55 0 0 -66.36z"/>
  </g>
 </g>
</svg>
