<?xml version="1.0" encoding="UTF-8"?>
<!DOCTYPE svg PUBLIC "-//W3C//DTD SVG 1.1//EN" "http://www.w3.org/Graphics/SVG/1.1/DTD/svg11.dtd">
<!-- Creator: CorelDRAW 2021 (64-Bit) -->
<svg xmlns="http://www.w3.org/2000/svg" xml:space="preserve" width="5.48494in" height="0.631213in" version="1.1" style="shape-rendering:geometricPrecision; text-rendering:geometricPrecision; image-rendering:optimizeQuality; fill-rule:evenodd; clip-rule:evenodd"
viewBox="0 0 6914.93 795.78"
 xmlns:xlink="http://www.w3.org/1999/xlink"
 xmlns:xodm="http://www.corel.com/coreldraw/odm/2003">
 <defs>
  <style type="text/css">
   <![CDATA[
    .fil0 {fill:white}
    .fil1 {fill:#1C180D;fill-rule:nonzero}
    .fil2 {fill:white;fill-rule:nonzero}
   ]]>
  </style>
 </defs>
 <g id="Layer_x0020_1">
  <metadata id="CorelCorpID_0Corel-Layer"/>
  <g id="_1721621047168">
   <rect class="fil0" x="4274.65" y="230.08" width="2640.28" height="407.88"/>
   <path class="fil1" d="M4361.42 581.62c-10.24,0 -18.87,-3.51 -25.88,-10.52 -7.01,-7.01 -10.51,-15.63 -10.51,-25.88 0,-10.24 3.5,-18.87 10.51,-25.88 7.01,-7.01 15.63,-10.51 25.88,-10.51 10.25,0 18.88,3.5 25.88,10.51 7.01,7.01 10.52,15.63 10.52,25.88 0,10.24 -3.51,18.87 -10.52,25.88 -7,7.01 -15.63,10.52 -25.88,10.52zm194.11 2.02c-14.56,0 -27.56,-1.41 -39.02,-4.25 -11.47,-2.83 -21.71,-6.54 -30.74,-11.12 -9.03,-4.58 -16.92,-9.84 -23.66,-15.77 -6.74,-5.93 -12.53,-11.99 -17.39,-18.19 -11.32,-14.56 -19.55,-31.14 -24.67,-49.74l76.83 0c2.43,6.74 6.07,12.54 10.92,17.39 4.31,4.31 10.31,8.22 18,11.72 7.67,3.5 17.59,5.26 29.72,5.26 15.09,0 25.95,-2.5 32.56,-7.48 6.6,-4.98 9.91,-10.58 9.91,-16.78 0,-7.28 -4.11,-13.01 -12.33,-17.19 -8.22,-4.17 -18.6,-7.89 -31.14,-11.12 -12.54,-3.23 -26.01,-6.67 -40.43,-10.31 -14.43,-3.63 -27.9,-8.76 -40.44,-15.36 -12.54,-6.61 -22.91,-15.17 -31.14,-25.68 -8.22,-10.52 -12.33,-24.4 -12.33,-41.65 0,-11.59 2.63,-22.78 7.89,-33.56 5.26,-10.79 12.87,-20.29 22.84,-28.51 9.98,-8.22 22.25,-14.76 36.8,-19.61 14.56,-4.85 31.14,-7.28 49.73,-7.28 13.75,0 26.02,1.28 36.8,3.84 10.78,2.56 20.29,5.93 28.51,10.11 8.23,4.18 15.44,8.89 21.64,14.15 6.2,5.26 11.46,10.72 15.77,16.38 9.98,12.94 16.85,27.77 20.62,44.48l-76.83 0c-1.62,-4.58 -4.32,-8.63 -8.09,-12.13 -3.24,-2.97 -7.89,-5.73 -13.95,-8.29 -6.07,-2.57 -14.22,-3.84 -24.47,-3.84 -14.28,0 -24.26,2.08 -29.92,6.27 -5.66,4.18 -8.49,8.83 -8.49,13.95 0,5.66 2.43,10.24 7.28,13.74 4.85,3.51 11.18,6.61 19,9.3 7.82,2.7 16.78,5.26 26.89,7.68 10.11,2.43 20.36,5.13 30.74,8.09 10.37,2.96 20.62,6.47 30.73,10.51 10.11,4.05 19.07,9.3 26.89,15.77 7.82,6.47 14.16,14.22 19.01,23.25 4.85,9.03 7.28,20.02 7.28,32.96 0,12.14 -2.57,23.79 -7.68,34.98 -5.12,11.18 -12.74,21.09 -22.85,29.72 -10.11,8.63 -22.71,15.5 -37.81,20.63 -15.1,5.12 -32.76,7.68 -52.98,7.68zm258.81 -2.02c-16.17,0 -31.21,-2.83 -45.09,-8.49 -13.88,-5.66 -25.88,-13.48 -35.99,-23.46 -10.1,-9.97 -17.99,-21.77 -23.65,-35.38 -5.66,-13.62 -8.49,-28.24 -8.49,-43.88l0 -12.13 157.71 0c-2.15,-14.29 -7.08,-25.27 -14.76,-32.95 -7.68,-7.68 -17.59,-11.53 -29.72,-11.53 -7.01,0 -13,1.15 -17.99,3.44 -4.99,2.29 -8.96,4.92 -11.93,7.89 -3.5,3.24 -6.33,6.87 -8.49,10.92l-70.76 0c2.43,-9.71 6.74,-19.14 12.94,-28.31 6.2,-9.16 14.02,-17.32 23.45,-24.46 9.44,-7.14 20.29,-12.93 32.56,-17.38 12.26,-4.45 25.68,-6.68 40.23,-6.68 16.18,0 31.27,2.96 45.29,8.9 14.02,5.93 26.22,13.94 36.6,24.05 10.38,10.11 18.54,21.91 24.46,35.39 5.94,13.48 8.9,27.77 8.9,42.86 0,15.1 -2.96,29.39 -8.9,42.87 -5.93,13.48 -14.09,25.27 -24.46,35.38 -10.38,10.11 -22.58,18.13 -36.6,24.06 -14.02,5.94 -29.12,8.9 -45.29,8.9zm0 -54.59c11.32,0 20.69,-3.43 28.1,-10.31 7.42,-6.88 12.21,-14.9 14.36,-24.06l-84.92 0c2.15,9.17 6.94,17.18 14.35,24.06 7.41,6.87 16.78,10.31 28.1,10.31zm147.6 -161.75l68.74 0 0 28.31 4.05 0c3.77,-6.47 8.63,-12.14 14.56,-16.99 5.12,-4.31 11.59,-8.28 19.41,-11.92 7.82,-3.64 17.39,-5.46 28.71,-5.46 24.53,0 43.81,7.34 57.82,22.03 14.02,14.7 21.03,36.33 21.03,64.91l0 129.4 -68.74 0 0 -119.3c0,-12.13 -3.24,-21.57 -9.71,-28.3 -6.47,-6.74 -15.37,-10.11 -26.69,-10.11 -11.32,0 -20.89,4.18 -28.71,12.54 -7.82,8.35 -11.73,19.68 -11.73,33.96l0 111.21 -68.74 0 0 -210.28zm357.87 216.35c-16.17,0 -31.2,-2.83 -45.08,-8.49 -13.88,-5.66 -25.88,-13.48 -35.99,-23.46 -10.11,-9.97 -17.99,-21.77 -23.65,-35.38 -5.66,-13.62 -8.49,-28.24 -8.49,-43.88l0 -12.13 157.71 0c-2.15,-14.29 -7.08,-25.27 -14.76,-32.95 -7.68,-7.68 -17.59,-11.53 -29.73,-11.53 -7.01,0 -13,1.15 -17.99,3.44 -4.99,2.29 -8.97,4.92 -11.93,7.89 -3.5,3.24 -6.34,6.87 -8.49,10.92l-70.76 0c2.42,-9.71 6.74,-19.14 12.94,-28.31 6.2,-9.16 14.02,-17.32 23.45,-24.46 9.44,-7.14 20.29,-12.93 32.56,-17.38 12.27,-4.45 25.68,-6.68 40.23,-6.68 16.18,0 31.27,2.96 45.3,8.9 14.02,5.93 26.22,13.94 36.59,24.05 10.38,10.11 18.54,21.91 24.47,35.39 5.93,13.48 8.89,27.77 8.89,42.86 0,15.1 -2.96,29.39 -8.89,42.87 -5.93,13.48 -14.09,25.27 -24.47,35.38 -10.37,10.11 -22.57,18.13 -36.59,24.06 -14.02,5.94 -29.12,8.9 -45.3,8.9zm0 -54.59c11.33,0 20.7,-3.43 28.11,-10.31 7.41,-6.88 12.2,-14.9 14.36,-24.06l-84.92 0c2.15,9.17 6.94,17.18 14.36,24.06 7.41,6.87 16.78,10.31 28.1,10.31zm232.53 54.59c-12.67,0 -24.6,-2.56 -35.79,-7.68 -11.18,-5.13 -21.03,-12.47 -29.52,-22.04 -8.49,-9.57 -15.23,-21.22 -20.22,-34.98 -4.99,-13.75 -7.48,-29.25 -7.48,-46.51 0,-17.25 2.49,-32.75 7.48,-46.5 4.98,-13.75 11.72,-25.41 20.22,-34.98 8.49,-9.57 18.33,-16.92 29.52,-22.04 11.19,-5.12 23.12,-7.68 35.79,-7.68 10.51,0 19.68,1.82 27.49,5.46 7.82,3.64 14.43,7.61 19.82,11.92 6.2,4.85 11.32,10.52 15.37,16.99l4.05 0 0 -101.1 68.74 0 0 283.07 -68.74 0 0 -28.31 -4.05 0c-4.05,6.74 -9.17,12.54 -15.37,17.39 -5.39,4.31 -12,8.22 -19.82,11.72 -7.82,3.51 -16.98,5.26 -27.49,5.26zm22.24 -58.64c13.21,0 23.93,-4.45 32.15,-13.34 8.22,-8.9 12.33,-21.97 12.33,-39.23 0,-17.25 -4.11,-30.32 -12.33,-39.22 -8.22,-8.89 -18.94,-13.35 -32.15,-13.35 -13.21,0 -23.92,4.45 -32.14,13.35 -8.22,8.9 -12.33,21.97 -12.33,39.22 0,17.26 4.11,30.33 12.33,39.23 8.22,8.89 18.94,13.34 32.14,13.34zm153.67 -230.5l68.74 0 0 228.48 46.5 0 0 54.59 -115.25 0 0 -283.07zm244.64 289.14c-16.17,0 -31.2,-2.83 -45.08,-8.49 -13.88,-5.66 -25.88,-13.48 -35.99,-23.46 -10.11,-9.97 -17.99,-21.77 -23.65,-35.38 -5.66,-13.62 -8.49,-28.24 -8.49,-43.88l0 -12.13 157.71 0c-2.15,-14.29 -7.08,-25.27 -14.76,-32.95 -7.68,-7.68 -17.59,-11.53 -29.73,-11.53 -7.01,0 -13,1.15 -17.99,3.44 -4.99,2.29 -8.97,4.92 -11.93,7.89 -3.51,3.24 -6.34,6.87 -8.49,10.92l-70.76 0c2.42,-9.71 6.74,-19.14 12.94,-28.31 6.2,-9.16 14.02,-17.32 23.45,-24.46 9.44,-7.14 20.29,-12.93 32.56,-17.38 12.26,-4.45 25.68,-6.68 40.23,-6.68 16.18,0 31.27,2.96 45.3,8.9 14.02,5.93 26.22,13.94 36.59,24.05 10.38,10.11 18.54,21.91 24.47,35.39 5.93,13.48 8.89,27.77 8.89,42.86 0,15.1 -2.96,29.39 -8.89,42.87 -5.93,13.48 -14.09,25.27 -24.47,35.38 -10.37,10.11 -22.57,18.13 -36.59,24.06 -14.02,5.94 -29.12,8.9 -45.3,8.9zm0 -54.59c11.33,0 20.7,-3.43 28.11,-10.31 7.41,-6.88 12.2,-14.9 14.35,-24.06l-84.92 0c2.15,9.17 6.94,17.18 14.36,24.06 7.41,6.87 16.78,10.31 28.1,10.31zm147.61 -161.75l66.72 0 0 30.33 4.05 0c2.43,-6.47 6.07,-12.13 10.92,-16.98 4.05,-4.31 9.3,-8.63 15.77,-12.93 6.46,-4.32 14.69,-6.47 24.66,-6.47l21.43 0 0 66.72 -34.38 0c-12.13,0 -21.9,3.77 -29.31,11.25 -7.41,7.55 -11.12,17.46 -11.12,29.73l0 108.64 -68.74 0 0 -210.28zm264.87 0l70.77 0 34.38 149.62 18.19 0 34.38 -149.62 70.76 0 -52.57 210.28 -123.34 0 -52.57 -210.28zm244.65 145.58l95.03 -58.63c11.05,-6.74 20.42,-13.01 28.1,-18.81 7.68,-5.8 13.95,-11.32 18.81,-16.58 4.85,-5.26 8.36,-10.38 10.51,-15.37 2.15,-4.98 3.24,-10.31 3.24,-15.97 0,-9.16 -3.24,-16.85 -9.71,-23.05 -6.47,-6.2 -15.37,-9.3 -26.69,-9.3 -10.24,0 -18.33,1.68 -24.26,5.05 -5.93,3.37 -10.38,7.08 -13.34,11.12 -3.51,4.85 -5.8,10.24 -6.88,16.17l-76.83 0c2.96,-18.87 9.3,-35.72 19.01,-50.55 4.05,-6.19 9.03,-12.33 14.96,-18.4 5.93,-6.07 13.08,-11.46 21.43,-16.18 8.36,-4.72 17.93,-8.56 28.71,-11.52 10.78,-2.97 23.18,-4.45 37.2,-4.45 18.07,0 34.24,2.49 48.53,7.48 14.29,4.99 26.42,11.86 36.39,20.62 9.98,8.77 17.52,19.01 22.65,30.74 5.12,11.73 7.68,24.46 7.68,38.21 0,12.14 -1.82,23.25 -5.46,33.36 -3.64,10.11 -8.89,19.48 -15.77,28.11 -6.87,8.63 -15.16,16.64 -24.87,24.06 -9.7,7.42 -20.62,14.63 -32.75,21.64l-28.31 16.18 -16.18 6.07 0 4.05 28.31 -4.05 95.03 0 0 64.7 -234.54 0 0 -64.7z"/>
   <g>
    <path class="fil0" d="M50.88 611.19c0,0 -40.27,-179.46 64.93,-301.84 105.2,-122.38 389.34,-183.43 416.98,-309.35 0,0 73.17,330.63 -105.48,506.67 -178.64,176.04 -413.72,176.83 -426.58,260.05 0,0 -19.94,-69.02 149.78,-161.69 236.51,-129.14 316.15,-270.5 316.93,-449.87 0,0 -13.47,279.81 -416.55,456.03z"/>
    <path class="fil2" d="M825.89 130.61c-10.83,0 -15.89,5.06 -15.89,15.89l0 473.78c0,10.83 5.06,15.89 15.89,15.89l78 0c10.84,0 15.89,-5.06 15.89,-15.89l0 -194.28 109.78 0c46.94,0 61.39,5.06 80.17,29.61l133.61 171.16c5.05,7.22 9.39,9.39 20.95,9.39l91.72 0c12.28,0 15.17,-13 9.39,-18.78l-148.05 -187.78c-18.06,-23.11 -35.39,-39.72 -54.89,-52 13.72,-11.55 27.44,-27.44 43.33,-48.39l140.11 -181.27c5.78,-7.22 2.16,-17.34 -8.67,-17.34l-90.28 0c-12.27,0 -15.89,2.17 -20.94,9.39l-125.67 166.11c-18.78,24.55 -31.06,28.89 -80.16,28.89l-100.39 0 0 -188.5c0,-10.84 -5.05,-15.89 -15.89,-15.89l-78 0zm767.72 109.06c-127.11,0 -171.16,39.72 -171.16,145.89l0 234.72c0,10.83 5.06,15.89 15.89,15.89l70.78 0c10.84,0 15.89,-5.06 15.89,-15.89l0 -214.5c0,-60.67 15.89,-76.56 78.72,-76.56l192.11 0c8.67,0 13,-4.33 13,-13l0 -63.56c0,-8.67 -4.33,-13 -13,-13l-202.23 0zm278.24 0c-10.84,0 -15.89,5.78 -15.89,15.89l0 364.72c0,10.83 5.05,15.89 15.89,15.89l70.77 0c10.12,0 15.89,-5.06 15.89,-15.89l0 -364.72c0,-10.11 -5.78,-15.89 -15.89,-15.89l-70.77 0zm0 -146.61c-10.84,0 -15.89,5.06 -15.89,15.89l0 68.61c0,10.84 5.05,16.61 15.89,16.61l70.77 0c10.84,0 15.89,-5.78 15.89,-16.61l0 -68.61c0,-10.83 -5.06,-15.89 -15.89,-15.89l-70.77 0zm311.81 146.61c-126.39,0 -171.16,38.28 -171.16,145.89l0 394.33c0,10.84 5.06,15.89 15.89,15.89l70.78 0c10.84,0 15.89,-5.05 15.89,-15.89l0 -143.72 270.83 0c126.39,0 171.89,-38.28 171.89,-145.89l0 -104.72c0,-107.61 -45.5,-145.89 -171.89,-145.89l-202.23 0zm-68.61 306.94l0 -140.83c0,-60.67 16.61,-76.56 78.72,-76.56l182 0c62.83,0 79.44,15.89 79.44,76.56l0 64.28c0,61.39 -16.61,76.56 -79.44,76.56l-260.72 0zm508.99 -306.94c-8.67,0 -13,4.33 -13,13l0 62.83c0,8.67 4.33,13 13,13l68.61 0 0 163.94c0,106.17 34.66,143.72 146.61,143.72l88.11 0c8.67,0 13,-4.33 13,-13l0 -62.83c0,-8.67 -4.33,-13 -13,-13l-70.78 0c-46.94,0 -60.66,-14.45 -60.66,-54.89l0 -163.94 127.11 0c8.67,0 13,-4.33 13,-13l0 -62.83c0,-8.67 -4.33,-13 -13,-13l-127.11 0 0 -95.33c0,-10.84 -5.78,-16.61 -15.89,-16.61l-71.5 0c-10.11,0 -15.89,5.78 -15.89,16.61l0 95.33 -68.61 0zm383.5 0c-8.67,0 -13,4.33 -13,13l0 63.56c0,8.67 4.34,13 13,13l301.16 0c62.11,0 79.44,16.61 79.44,62.83l0 7.22 -294.66 0c-78,0 -111.22,32.5 -111.22,99.67l0 34.67c0,74.39 28.17,102.55 111.22,102.55l343.78 0c42.61,0 53.44,-11.55 53.44,-57.78l0 -192.83c0,-106.17 -44.06,-145.89 -171.88,-145.89l-311.28 0zm358.22 310.56l-241.95 0c-31.05,0 -39.72,-6.5 -39.72,-31.06l0 -15.17c0,-21.67 8.67,-30.33 39.72,-30.33l264.33 0 0 52.72c0,17.33 -6.5,23.83 -22.39,23.83zm193.01 -310.56c-8.67,0 -13,4.33 -13,13l0 62.83c0,8.67 4.33,13 13,13l335.83 0c4.33,0 6.5,2.16 6.5,5.05l0 5.06c0,5.78 -1.44,8.67 -5.78,10.11l-320.67 124.22c-26,10.11 -32.5,20.95 -32.5,51.28l0 67.17c0,31.05 15.17,44.78 49.83,44.78l399.39 0c8.67,0 13,-4.33 13,-13l0 -62.83c0,-8.67 -4.33,-13 -13,-13l-335.83 0c-4.33,0 -6.5,-1.44 -6.5,-5.06l0 -5.06c0,-5.05 1.44,-8.67 5.78,-10.11l320.66 -124.94c26,-9.39 32.5,-20.94 32.5,-51.28l0 -66.44c0,-30.34 -15.17,-44.78 -49.83,-44.78l-399.39 0z"/>
   </g>
  </g>
 </g>
</svg>
