<?xml version="1.0" encoding="UTF-8"?>
<!DOCTYPE svg PUBLIC "-//W3C//DTD SVG 1.1//EN" "http://www.w3.org/Graphics/SVG/1.1/DTD/svg11.dtd">
<!-- Creator: CorelDRAW 2021 (64-Bit) -->
<svg xmlns="http://www.w3.org/2000/svg" xml:space="preserve" width="4.1278in" height="0.625953in" version="1.1" style="shape-rendering:geometricPrecision; text-rendering:geometricPrecision; image-rendering:optimizeQuality; fill-rule:evenodd; clip-rule:evenodd"
viewBox="0 0 14765.63 2239.11"
 xmlns:xlink="http://www.w3.org/1999/xlink"
 xmlns:xodm="http://www.corel.com/coreldraw/odm/2003">
 <defs>
  <style type="text/css">
   <![CDATA[
    .fil0 {fill:white}
    .fil2 {fill:#D4D0C9;fill-rule:nonzero}
    .fil1 {fill:white;fill-rule:nonzero}
   ]]>
  </style>
 </defs>
 <g id="Layer_x0020_1">
  <metadata id="CorelCorpID_0Corel-Layer"/>
  <path id="Leaf" class="fil0" d="M145.41 1746.9c0,0 -115.07,-512.94 185.57,-862.72 300.68,-349.77 1112.79,-524.27 1191.8,-884.18 0,0 209.12,945.01 -301.46,1448.17 -510.58,503.15 -1182.48,505.4 -1219.25,743.25 0,0 -56.99,-197.25 428.1,-462.12 645.44,-352.42 934.67,-814.44 934.67,-1300.56 0,-74.71 -46.53,-56.71 -56.19,0 -38.98,220.56 -215.28,903.74 -1163.24,1318.17z"/>
  <path class="fil1" d="M2270.91 358.06l190.22 0 0 644.63 285.32 0 464.97 -644.63 221.92 0 -517.81 718.61 538.95 760.87 -232.48 0 -464.98 -655.19 -295.89 0 0 655.19 -190.22 0 0 -1479.48zm1352.66 422.71l169.08 0 0 169.08 2.11 0c18.32,-33.81 42.28,-63.4 71.87,-88.77 25.36,-22.53 58.47,-45.08 99.33,-67.63 40.87,-22.55 92.3,-33.81 154.29,-33.81l126.8 0 0 169.08 -126.8 0c-47.91,0 -91.93,8.1 -132.1,24.66 -40.15,16.2 -74.67,39.09 -103.55,68.33 -28.9,29.24 -51.43,64.11 -67.64,104.98 -16.2,40.5 -24.31,84.89 -24.31,133.51l0 577.34 -169.08 0 0 -1056.77zm803.15 0l169.08 0 0 1056.77 -169.08 0 0 -1056.77zm84.54 -200.78c-32.41,0 -59.88,-11.27 -82.43,-33.81 -22.53,-22.55 -33.81,-50.02 -33.81,-82.43 0,-32.41 11.28,-59.88 33.81,-82.43 22.55,-22.53 50.02,-33.81 82.43,-33.81 32.41,0 59.88,11.28 82.43,33.81 22.55,22.55 33.81,50.02 33.81,82.43 0,32.41 -11.27,59.88 -33.81,82.43 -22.55,22.55 -50.02,33.81 -82.43,33.81zm380.44 200.78l169.08 0 0 169.08 2.11 0c0,0 6.7,-10.21 20.08,-30.64 13.39,-20.42 35.22,-42.26 65.51,-65.51 30.29,-23.25 69.4,-44.74 117.31,-64.46 47.9,-19.73 106.37,-29.59 175.42,-29.59 69.04,0 134.21,13.73 195.5,41.21 61.29,27.48 115.19,65.53 161.67,114.13 46.5,48.62 83.13,106.74 109.9,174.36 26.77,67.64 40.17,140.9 40.17,219.81 0,78.91 -13.39,152.18 -40.17,219.81 -26.77,67.63 -63.4,125.76 -109.9,174.36 -46.49,48.62 -100.38,86.65 -161.67,114.13 -61.29,27.48 -126.47,41.22 -195.5,41.22 -69.05,0 -127.52,-9.87 -175.42,-29.59 -47.91,-19.73 -87.02,-41.22 -117.31,-64.47 -30.29,-23.24 -52.12,-45.08 -65.51,-65.51 -13.38,-20.43 -20.08,-30.64 -20.08,-30.64l-2.11 0 0 570.65 -169.08 0 0 -1458.34zm528.39 919.39c50.73,0 97.92,-9.51 141.61,-28.53 43.69,-19.03 81.72,-45.8 114.13,-80.32 32.41,-34.52 57.77,-75.73 76.09,-123.64 18.31,-47.91 27.48,-100.75 27.48,-158.52 0,-57.77 -9.17,-110.61 -27.48,-158.51 -18.32,-47.91 -43.69,-89.13 -76.09,-123.65 -32.41,-34.52 -70.44,-61.29 -114.13,-80.32 -43.69,-19.01 -90.88,-28.53 -141.61,-28.53 -50.73,0 -97.92,9.52 -141.61,28.53 -43.69,19.03 -81.72,45.8 -114.13,80.32 -32.41,34.52 -57.77,75.74 -76.09,123.65 -18.31,47.9 -27.48,100.74 -27.48,158.51 0,57.77 9.17,110.61 27.48,158.52 18.32,47.91 43.69,89.12 76.09,123.64 32.41,34.52 70.44,61.29 114.13,80.32 43.69,19.03 90.88,28.53 141.61,28.53zm803.15 -760.87l-137.38 0 0 -158.52 137.38 0 0 -232.48 169.08 0 0 232.48 338.16 0 0 158.52 -338.16 0 0 739.73 348.73 0 0 158.52 -517.81 0 0 -898.25zm1173 919.39c-69.04,0 -134.21,-13.75 -195.5,-41.22 -61.29,-27.48 -115.19,-65.51 -161.69,-114.13 -46.49,-48.6 -83.13,-106.74 -109.9,-174.36 -26.77,-67.63 -40.15,-140.9 -40.15,-219.81 0,-78.91 13.38,-152.17 40.15,-219.81 26.77,-67.63 63.42,-125.75 109.9,-174.36 46.5,-48.6 100.4,-86.65 161.69,-114.13 61.29,-27.48 126.47,-41.21 195.5,-41.21 69.04,0 127.52,9.86 175.42,29.59 47.91,19.72 87.01,41.56 117.3,65.51 30.29,23.96 52.14,46.15 65.53,66.57 13.38,20.43 20.07,30.66 20.07,30.66l2.13 0 0 -171.21 169.08 0 0 1056.77 -169.08 0 0 -169.08 -2.13 0c0,0 -6.69,10.21 -20.07,30.64 -13.39,20.43 -35.24,42.28 -65.53,65.51 -30.29,23.25 -69.39,44.74 -117.3,64.47 -47.9,19.72 -106.38,29.59 -175.42,29.59zm21.14 -158.52c50.73,0 97.92,-9.51 141.61,-28.53 43.67,-19.03 81.72,-45.8 114.13,-80.32 32.41,-34.52 57.77,-75.73 76.09,-123.64 18.31,-47.91 27.48,-100.75 27.48,-158.52 0,-57.77 -9.17,-110.61 -27.48,-158.51 -18.32,-47.91 -43.69,-89.13 -76.09,-123.65 -32.41,-34.52 -70.46,-61.29 -114.13,-80.32 -43.69,-19.01 -90.88,-28.53 -141.61,-28.53 -50.73,0 -97.93,9.52 -141.61,28.53 -43.69,19.03 -81.72,45.8 -114.13,80.32 -32.41,34.52 -57.77,75.74 -76.09,123.65 -18.32,47.9 -27.48,100.74 -27.48,158.51 0,57.77 9.15,110.61 27.48,158.52 18.32,47.91 43.69,89.12 76.09,123.64 32.41,34.52 70.44,61.29 114.13,80.32 43.67,19.03 90.88,28.53 141.61,28.53zm729.17 -21.14l634.05 -737.62 0 -2.11 -612.91 0 0 -158.52 834.84 0 0 158.52 -634.05 737.62 0 2.11 655.19 0 0 158.52 -877.11 0 0 -158.52z"/>
  <path class="fil2" d="M9186.86 1833.03c-22.83,0 -42.05,-7.82 -57.67,-23.43 -15.63,-15.62 -23.43,-34.84 -23.43,-57.68 0,-22.83 7.8,-42.05 23.43,-57.67 15.62,-15.63 34.84,-23.43 57.67,-23.43 22.84,0 42.07,7.8 57.68,23.43 15.62,15.62 23.43,34.84 23.43,57.67 0,22.84 -7.82,42.07 -23.43,57.68 -15.62,15.62 -34.84,23.43 -57.68,23.43zm432.61 4.51c-32.45,0 -61.43,-3.15 -86.96,-9.46 -25.55,-6.31 -48.38,-14.58 -68.5,-24.79 -20.12,-10.21 -37.7,-21.93 -52.73,-35.15 -15.01,-13.21 -27.93,-26.73 -38.74,-40.55 -25.24,-32.45 -43.57,-69.4 -54.98,-110.86l171.24 0c5.41,15.03 13.52,27.94 24.34,38.76 9.6,9.62 22.98,18.32 40.11,26.14 17.11,7.8 39.19,11.72 66.23,11.72 33.64,0 57.84,-5.56 72.56,-16.67 14.72,-11.11 22.08,-23.59 22.08,-37.4 0,-16.22 -9.17,-29 -27.49,-38.31 -18.32,-9.31 -41.46,-17.58 -69.4,-24.79 -27.94,-7.21 -57.98,-14.87 -90.12,-22.98 -32.15,-8.1 -62.19,-19.52 -90.13,-34.24 -27.94,-14.73 -51.07,-33.8 -69.39,-57.23 -18.34,-23.43 -27.49,-54.38 -27.49,-92.84 0,-25.83 5.86,-50.77 17.58,-74.8 11.72,-24.04 28.69,-45.22 50.91,-63.54 22.24,-18.32 49.57,-32.9 82.02,-43.7 32.45,-10.82 69.4,-16.22 110.85,-16.22 30.64,0 57.98,2.84 82.02,8.56 24.03,5.7 45.21,13.21 63.53,22.52 18.34,9.32 34.41,19.83 48.22,31.55 13.82,11.72 25.53,23.89 35.15,36.5 22.24,28.84 37.55,61.88 45.97,99.13l-171.24 0c-3.61,-10.21 -9.62,-19.22 -18.03,-27.03 -7.21,-6.62 -17.58,-12.77 -31.1,-18.48 -13.52,-5.72 -31.69,-8.56 -54.53,-8.56 -31.84,0 -54.07,4.65 -66.68,13.97 -12.62,9.31 -18.93,19.67 -18.93,31.1 0,12.6 5.41,22.83 16.22,30.63 10.82,7.82 24.93,14.73 42.35,20.73 17.43,6.01 37.4,11.72 59.94,17.13 22.53,5.41 45.36,11.42 68.5,18.03 23.12,6.6 45.95,14.42 68.49,23.43 22.53,9.01 42.52,20.73 59.94,35.15 17.42,14.42 31.55,31.69 42.36,51.81 10.82,20.14 16.22,44.62 16.22,73.46 0,27.04 -5.72,53.02 -17.13,77.96 -11.42,24.93 -28.39,47.01 -50.92,66.23 -22.53,19.22 -50.61,34.55 -84.26,45.97 -33.66,11.42 -73.01,17.13 -118.07,17.13zm576.8 -4.51c-36.04,0 -69.54,-6.31 -100.48,-18.93 -30.94,-12.62 -57.68,-30.04 -80.22,-52.28 -22.52,-22.22 -40.09,-48.52 -52.71,-78.85 -12.62,-30.35 -18.93,-62.94 -18.93,-97.79l0 -27.04 351.49 0c-4.8,-31.84 -15.77,-56.32 -32.9,-73.44 -17.13,-17.13 -39.21,-25.69 -66.25,-25.69 -15.62,0 -28.98,2.55 -40.09,7.66 -11.13,5.11 -19.98,10.97 -26.59,17.58 -7.82,7.21 -14.13,15.32 -18.93,24.34l-157.72 0c5.41,-21.63 15.01,-42.66 28.84,-63.09 13.82,-20.42 31.24,-38.6 52.26,-54.53 21.04,-15.91 45.22,-28.83 72.56,-38.74 27.34,-9.91 57.23,-14.87 89.67,-14.87 36.05,0 69.7,6.6 100.95,19.83 31.24,13.21 58.43,31.08 81.56,53.61 23.14,22.53 41.32,48.83 54.53,78.87 13.22,30.04 19.83,61.88 19.83,95.53 0,33.64 -6.6,65.5 -19.83,95.54 -13.21,30.04 -31.39,56.32 -54.53,78.85 -23.12,22.53 -50.32,40.4 -81.56,53.63 -31.25,13.22 -64.9,19.83 -100.95,19.83zm0 -121.66c25.24,0 46.12,-7.66 62.64,-22.98 16.52,-15.32 27.19,-33.19 32,-53.63l-189.26 0c4.8,20.43 15.48,38.31 32,53.63 16.52,15.32 37.4,22.98 62.63,22.98zm328.97 -360.5l153.21 0 0 63.08 9.01 0c8.41,-14.42 19.22,-27.04 32.45,-37.86 11.41,-9.6 25.83,-18.46 43.25,-26.57 17.43,-8.11 38.76,-12.17 63.99,-12.17 54.67,0 97.64,16.36 128.87,49.11 31.25,32.76 46.87,80.96 46.87,144.66l0 288.39 -153.21 0 0 -265.88c0,-27.03 -7.21,-48.07 -21.63,-63.08 -14.42,-15.03 -34.25,-22.53 -59.49,-22.53 -25.22,0 -46.56,9.31 -63.98,27.94 -17.42,18.62 -26.14,43.85 -26.14,75.7l0 247.85 -153.21 0 0 -468.64zm797.6 482.16c-36.04,0 -69.54,-6.31 -100.48,-18.93 -30.94,-12.62 -57.68,-30.04 -80.22,-52.28 -22.52,-22.22 -40.09,-48.52 -52.71,-78.85 -12.62,-30.35 -18.93,-62.94 -18.93,-97.79l0 -27.04 351.49 0c-4.8,-31.84 -15.77,-56.32 -32.9,-73.44 -17.13,-17.13 -39.21,-25.69 -66.25,-25.69 -15.62,0 -28.98,2.55 -40.09,7.66 -11.13,5.11 -19.98,10.97 -26.59,17.58 -7.82,7.21 -14.13,15.32 -18.93,24.34l-157.72 0c5.41,-21.63 15.01,-42.66 28.84,-63.09 13.82,-20.42 31.24,-38.6 52.26,-54.53 21.04,-15.91 45.22,-28.83 72.56,-38.74 27.34,-9.91 57.23,-14.87 89.67,-14.87 36.05,0 69.7,6.6 100.95,19.83 31.24,13.21 58.43,31.08 81.56,53.61 23.14,22.53 41.32,48.83 54.53,78.87 13.22,30.04 19.83,61.88 19.83,95.53 0,33.64 -6.6,65.5 -19.83,95.54 -13.21,30.04 -31.39,56.32 -54.53,78.85 -23.12,22.53 -50.32,40.4 -81.56,53.63 -31.25,13.22 -64.9,19.83 -100.95,19.83zm0 -121.66c25.24,0 46.12,-7.66 62.64,-22.98 16.52,-15.32 27.19,-33.19 32,-53.63l-189.26 0c4.8,20.43 15.48,38.31 32,53.63 16.52,15.32 37.4,22.98 62.63,22.98zm518.23 121.66c-28.24,0 -54.83,-5.7 -79.77,-17.13 -24.93,-11.42 -46.87,-27.79 -65.78,-49.12 -18.93,-21.32 -33.95,-47.31 -45.07,-77.95 -11.13,-30.64 -16.67,-65.19 -16.67,-103.65 0,-38.45 5.55,-72.99 16.67,-103.64 11.11,-30.64 26.14,-56.63 45.07,-77.96 18.91,-21.32 40.86,-37.7 65.78,-49.11 24.94,-11.42 51.53,-17.13 79.77,-17.13 23.43,0 43.85,4.06 61.28,12.17 17.43,8.11 32.15,16.97 44.16,26.57 13.82,10.82 25.24,23.43 34.25,37.86l9.01 0 0 -225.32 153.21 0 0 630.88 -153.21 0 0 -63.09 -9.01 0c-9.01,15.03 -20.43,27.94 -34.25,38.76 -12.01,9.62 -26.73,18.32 -44.16,26.14 -17.42,7.82 -37.84,11.72 -61.28,11.72zm49.56 -130.68c29.45,0 53.33,-9.91 71.66,-29.74 18.32,-19.83 27.49,-48.97 27.49,-87.43 0,-38.45 -9.17,-67.59 -27.49,-87.41 -18.32,-19.83 -42.21,-29.74 -71.66,-29.74 -29.43,0 -53.32,9.91 -71.64,29.74 -18.32,19.83 -27.49,48.97 -27.49,87.41 0,38.46 9.17,67.6 27.49,87.43 18.32,19.83 42.21,29.74 71.64,29.74zm342.49 -513.73l153.21 0 0 509.22 103.64 0 0 121.66 -256.85 0 0 -630.88zm545.24 644.4c-36.04,0 -69.54,-6.31 -100.48,-18.93 -30.94,-12.62 -57.68,-30.04 -80.22,-52.28 -22.52,-22.22 -40.09,-48.52 -52.71,-78.85 -12.62,-30.35 -18.93,-62.94 -18.93,-97.79l0 -27.04 351.49 0c-4.8,-31.84 -15.77,-56.32 -32.9,-73.44 -17.13,-17.13 -39.21,-25.69 -66.25,-25.69 -15.62,0 -28.98,2.55 -40.09,7.66 -11.13,5.11 -19.98,10.97 -26.59,17.58 -7.82,7.21 -14.13,15.32 -18.93,24.34l-157.72 0c5.41,-21.63 15.01,-42.66 28.84,-63.09 13.82,-20.42 31.24,-38.6 52.26,-54.53 21.04,-15.91 45.22,-28.83 72.56,-38.74 27.34,-9.91 57.23,-14.87 89.67,-14.87 36.05,0 69.7,6.6 100.95,19.83 31.24,13.21 58.43,31.08 81.56,53.61 23.14,22.53 41.32,48.83 54.53,78.87 13.22,30.04 19.83,61.88 19.83,95.53 0,33.64 -6.6,65.5 -19.83,95.54 -13.21,30.04 -31.39,56.32 -54.53,78.85 -23.12,22.53 -50.32,40.4 -81.56,53.63 -31.25,13.22 -64.9,19.83 -100.95,19.83zm0 -121.66c25.24,0 46.12,-7.66 62.64,-22.98 16.52,-15.32 27.19,-33.19 32,-53.63l-189.26 0c4.8,20.43 15.48,38.31 32,53.63 16.52,15.32 37.4,22.98 62.63,22.98zm328.97 -360.5l148.7 0 0 67.59 9.01 0c5.41,-14.42 13.52,-27.04 24.34,-37.86 9.01,-9.6 20.73,-19.22 35.15,-28.83 14.41,-9.62 32.74,-14.42 54.97,-14.42l47.77 0 0 148.7 -76.61 0c-27.03,0 -48.81,8.41 -65.33,25.08 -16.52,16.83 -24.79,38.9 -24.79,66.25l0 242.13 -153.21 0 0 -468.64zm590.32 0l157.72 0 76.61 333.46 40.55 0 76.61 -333.46 157.72 0 -117.16 468.64 -274.89 0 -117.16 -468.64zm545.26 324.45l211.8 -130.68c24.63,-15.03 45.5,-29 62.63,-41.91 17.13,-12.93 31.1,-25.24 41.91,-36.95 10.82,-11.72 18.63,-23.14 23.43,-34.25 4.8,-11.11 7.21,-22.98 7.21,-35.6 0,-20.42 -7.21,-37.55 -21.63,-51.36 -14.42,-13.83 -34.25,-20.73 -59.49,-20.73 -22.83,0 -40.86,3.75 -54.07,11.27 -13.22,7.51 -23.14,15.77 -29.74,24.79 -7.82,10.8 -12.91,22.83 -15.32,36.04l-171.24 0c6.6,-42.05 20.73,-79.61 42.36,-112.65 9.01,-13.82 20.12,-27.49 33.33,-41.01 13.22,-13.52 29.15,-25.53 47.77,-36.05 18.63,-10.51 39.95,-19.07 63.99,-25.67 24.03,-6.62 51.67,-9.91 82.91,-9.91 40.26,0 76.32,5.55 108.16,16.67 31.84,11.11 58.88,26.43 81.1,45.95 22.24,19.53 39.05,42.36 50.47,68.5 11.42,26.14 17.13,54.53 17.13,85.16 0,27.04 -4.06,51.83 -12.17,74.36 -8.11,22.53 -19.83,43.4 -35.15,62.64 -15.32,19.22 -33.8,37.1 -55.43,53.61 -21.62,16.53 -45.95,32.6 -72.99,48.22l-63.09 36.05 -36.05 13.52 0 9.01 63.09 -9.01 211.8 0 0 144.2 -522.72 0 0 -144.2z"/>
 </g>
</svg>
