<?xml version="1.0" encoding="UTF-8"?>
<!DOCTYPE svg PUBLIC "-//W3C//DTD SVG 1.1//EN" "http://www.w3.org/Graphics/SVG/1.1/DTD/svg11.dtd">
<!-- Creator: CorelDRAW 2021 (64-Bit) -->
<svg xmlns="http://www.w3.org/2000/svg" xml:space="preserve" width="5.01379in" height="0.631213in" version="1.1" style="shape-rendering:geometricPrecision; text-rendering:geometricPrecision; image-rendering:optimizeQuality; fill-rule:evenodd; clip-rule:evenodd"
viewBox="0 0 5777.99 727.42"
 xmlns:xlink="http://www.w3.org/1999/xlink"
 xmlns:xodm="http://www.corel.com/coreldraw/odm/2003">
 <defs>
  <style type="text/css">
   <![CDATA[
    .fil0 {fill:white}
    .fil2 {fill:#1C180D;fill-rule:nonzero}
    .fil1 {fill:white;fill-rule:nonzero}
   ]]>
  </style>
 </defs>
 <g id="Layer_x0020_1">
  <metadata id="CorelCorpID_0Corel-Layer"/>
  <g id="_1721539306464">
   <rect class="fil0" x="3821.26" y="210.31" width="1956.73" height="372.84"/>
   <g>
    <path class="fil0" d="M46.51 558.69c0,0 -36.81,-164.05 59.35,-275.91 96.16,-111.87 355.89,-167.67 381.16,-282.78 0,0 66.88,302.23 -96.42,463.15 -163.29,160.92 -378.18,161.64 -389.94,237.71 0,0 -18.23,-63.09 136.92,-147.8 216.2,-118.05 288.99,-247.27 289.7,-411.22 0,0 -12.31,255.77 -380.77,416.85z"/>
    <path class="fil1" d="M754.94 119.39c-9.9,0 -14.52,4.62 -14.52,14.53l0 433.08c0,9.9 4.62,14.52 14.52,14.52l71.3 0c9.9,0 14.52,-4.62 14.52,-14.52l0 -177.59 100.35 0c42.91,0 56.12,4.62 73.28,27.07l122.13 156.46c4.62,6.6 8.58,8.58 19.15,8.58l83.84 0c11.22,0 13.87,-11.88 8.58,-17.16l-135.34 -171.65c-16.51,-21.13 -32.35,-36.31 -50.18,-47.54 12.55,-10.56 25.09,-25.09 39.61,-44.23l128.08 -165.7c5.28,-6.6 1.98,-15.85 -7.92,-15.85l-82.53 0c-11.22,0 -14.52,1.98 -19.14,8.58l-114.87 151.84c-17.16,22.44 -28.39,26.41 -73.28,26.41l-91.77 0 0 -172.3c0,-9.9 -4.62,-14.53 -14.52,-14.53l-71.3 0zm701.77 99.69c-116.19,0 -156.46,36.31 -156.46,133.36l0 214.56c0,9.9 4.62,14.52 14.52,14.52l64.7 0c9.9,0 14.52,-4.62 14.52,-14.52l0 -196.07c0,-55.46 14.52,-69.98 71.96,-69.98l175.61 0c7.92,0 11.88,-3.96 11.88,-11.88l0 -58.1c0,-7.92 -3.96,-11.88 -11.88,-11.88l-184.85 0zm254.34 0c-9.9,0 -14.52,5.28 -14.52,14.52l0 333.39c0,9.9 4.62,14.52 14.52,14.52l64.69 0c9.25,0 14.53,-4.62 14.53,-14.52l0 -333.39c0,-9.24 -5.28,-14.52 -14.53,-14.52l-64.69 0zm0 -134.02c-9.9,0 -14.52,4.62 -14.52,14.52l0 62.72c0,9.9 4.62,15.19 14.52,15.19l64.69 0c9.9,0 14.53,-5.28 14.53,-15.19l0 -62.72c0,-9.9 -4.62,-14.52 -14.53,-14.52l-64.69 0zm285.03 134.02c-115.53,0 -156.46,34.99 -156.46,133.36l0 360.46c0,9.9 4.62,14.52 14.52,14.52l64.7 0c9.9,0 14.52,-4.62 14.52,-14.52l0 -131.38 247.57 0c115.53,0 157.12,-34.99 157.12,-133.36l0 -95.72c0,-98.37 -41.59,-133.36 -157.12,-133.36l-184.85 0zm-62.72 280.58l0 -128.74c0,-55.46 15.19,-69.98 71.96,-69.98l166.37 0c57.43,0 72.62,14.52 72.62,69.98l0 58.76c0,56.11 -15.18,69.98 -72.62,69.98l-238.33 0zm465.26 -280.58c-7.92,0 -11.88,3.96 -11.88,11.88l0 57.43c0,7.93 3.96,11.89 11.88,11.89l62.72 0 0 149.86c0,97.05 31.69,131.38 134.02,131.38l80.54 0c7.92,0 11.88,-3.96 11.88,-11.88l0 -57.43c0,-7.92 -3.96,-11.88 -11.88,-11.88l-64.7 0c-42.91,0 -55.45,-13.21 -55.45,-50.18l0 -149.86 116.19 0c7.92,0 11.88,-3.96 11.88,-11.89l0 -57.43c0,-7.92 -3.96,-11.88 -11.88,-11.88l-116.19 0 0 -87.14c0,-9.9 -5.28,-15.19 -14.52,-15.19l-65.36 0c-9.24,0 -14.52,5.28 -14.52,15.19l0 87.14 -62.72 0zm350.56 0c-7.92,0 -11.89,3.96 -11.89,11.88l0 58.1c0,7.92 3.97,11.88 11.89,11.88l275.29 0c56.78,0 72.62,15.19 72.62,57.43l0 6.6 -269.35 0c-71.3,0 -101.67,29.71 -101.67,91.1l0 31.69c0,68 25.75,93.75 101.67,93.75l314.25 0c38.95,0 48.85,-10.56 48.85,-52.82l0 -176.27c0,-97.05 -40.27,-133.36 -157.12,-133.36l-284.54 0zm327.45 283.88l-221.16 0c-28.38,0 -36.31,-5.94 -36.31,-28.39l0 -13.87c0,-19.8 7.93,-27.73 36.31,-27.73l241.63 0 0 48.19c0,15.84 -5.94,21.79 -20.46,21.79zm176.43 -283.88c-7.92,0 -11.88,3.96 -11.88,11.88l0 57.43c0,7.93 3.96,11.89 11.88,11.89l306.98 0c3.96,0 5.94,1.98 5.94,4.62l0 4.62c0,5.28 -1.32,7.92 -5.28,9.24l-293.12 113.55c-23.77,9.24 -29.71,19.15 -29.71,46.87l0 61.4c0,28.38 13.87,40.93 45.55,40.93l365.08 0c7.92,0 11.88,-3.96 11.88,-11.88l0 -57.43c0,-7.92 -3.96,-11.88 -11.88,-11.88l-306.98 0c-3.96,0 -5.94,-1.32 -5.94,-4.62l0 -4.62c0,-4.62 1.32,-7.92 5.28,-9.24l293.12 -114.21c23.77,-8.58 29.71,-19.14 29.71,-46.87l0 -60.73c0,-27.73 -13.87,-40.93 -45.55,-40.93l-365.08 0z"/>
   </g>
   <path class="fil2" d="M3974.59 268.54l64.1 0 -97.06 256.39 -64.1 0 97.06 -256.39zm87.91 0l99.26 0c21.49,0 40.96,3.36 58.42,10.07 17.46,6.71 32.42,15.81 44.87,27.29 12.45,11.48 22.1,25.03 28.93,40.66 6.84,15.63 10.26,32.35 10.26,50.18 0,17.83 -3.42,34.55 -10.26,50.18 -6.84,15.63 -16.48,29.18 -28.93,40.66 -12.45,11.47 -27.41,20.57 -44.87,27.29 -17.46,6.71 -36.93,10.07 -58.42,10.07l-99.26 0 0 -256.39zm98.89 194.12c22.95,0 40.6,-5.92 52.93,-17.76 12.33,-11.85 18.49,-27.9 18.49,-48.17 0,-20.27 -6.17,-36.32 -18.49,-48.17 -12.33,-11.84 -29.98,-17.76 -52.93,-17.76l-31.13 0 0 131.86 31.13 0zm311.33 69.59c-21,0 -40.29,-3.6 -57.87,-10.81 -17.58,-7.2 -32.66,-17.03 -45.23,-29.49 -12.58,-12.45 -22.35,-26.86 -29.31,-43.22 -6.96,-16.36 -10.44,-33.7 -10.44,-52.01 0,-18.32 3.48,-35.65 10.44,-52.01 6.96,-16.36 16.73,-30.77 29.31,-43.22 12.57,-12.45 27.65,-22.28 45.23,-29.48 17.58,-7.2 36.87,-10.81 57.87,-10.81 21,0 40.29,3.6 57.87,10.81 17.58,7.2 32.66,17.03 45.23,29.48 12.58,12.45 22.35,26.86 29.3,43.22 6.96,16.36 10.44,33.7 10.44,52.01 0,18.31 -3.48,35.65 -10.44,52.01 -6.96,16.36 -16.72,30.77 -29.3,43.22 -12.58,12.45 -27.65,22.28 -45.23,29.49 -17.58,7.2 -36.87,10.81 -57.87,10.81zm0 -62.27c10.5,0 20.14,-1.77 28.93,-5.31 8.79,-3.54 16.3,-8.48 22.53,-14.83 6.23,-6.35 11.11,-14.04 14.65,-23.08 3.54,-9.04 5.31,-19.05 5.31,-30.04 0,-10.99 -1.77,-21 -5.31,-30.04 -3.54,-9.03 -8.42,-16.73 -14.65,-23.08 -6.22,-6.35 -13.73,-11.29 -22.53,-14.83 -8.79,-3.54 -18.43,-5.31 -28.93,-5.31 -10.5,0 -20.14,1.77 -28.94,5.31 -8.79,3.54 -16.3,8.48 -22.53,14.83 -6.22,6.35 -11.11,14.04 -14.65,23.08 -3.54,9.03 -5.31,19.05 -5.31,30.04 0,10.99 1.77,21 5.31,30.04 3.54,9.03 8.43,16.72 14.65,23.08 6.23,6.35 13.74,11.29 22.53,14.83 8.79,3.54 18.44,5.31 28.94,5.31zm311.33 62.27c-21,0 -40.29,-3.48 -57.87,-10.44 -17.58,-6.96 -32.66,-16.48 -45.23,-28.57 -12.58,-12.09 -22.35,-26.37 -29.31,-42.85 -6.96,-16.48 -10.44,-34.37 -10.44,-53.66 0,-19.29 3.48,-37.18 10.44,-53.66 6.96,-16.48 16.73,-30.77 29.31,-42.85 12.57,-12.09 27.65,-21.61 45.23,-28.57 17.58,-6.96 36.87,-10.44 57.87,-10.44 13.92,0 26.49,1.47 37.73,4.4 11.23,2.93 21.31,6.77 30.22,11.54 8.91,4.76 16.73,10.13 23.44,16.12 6.71,5.98 12.51,12.15 17.4,18.5 11.48,14.9 19.78,31.62 24.91,50.18l-69.59 0c-3.17,-7.08 -7.69,-13.43 -13.55,-19.05 -4.88,-4.89 -11.42,-9.34 -19.6,-13.37 -8.18,-4.03 -18.49,-6.04 -30.95,-6.04 -10.5,0 -20.14,1.77 -28.94,5.31 -8.79,3.54 -16.3,8.48 -22.53,14.83 -6.22,6.35 -11.11,14.04 -14.65,23.08 -3.54,9.03 -5.31,19.05 -5.31,30.04 0,10.99 1.77,21 5.31,30.04 3.54,9.03 8.43,16.72 14.65,23.08 6.23,6.35 13.74,11.29 22.53,14.83 8.79,3.54 18.44,5.31 28.94,5.31 13.92,0 25.09,-2.26 33.52,-6.78 8.42,-4.51 15.08,-9.58 19.96,-15.2 5.62,-6.35 9.77,-13.67 12.45,-21.98l69.59 0c-5.62,20.02 -14.29,37.73 -26.01,53.11 -4.89,6.59 -10.74,13.13 -17.58,19.6 -6.84,6.47 -14.77,12.15 -23.81,17.03 -9.03,4.88 -19.16,8.85 -30.4,11.9 -11.23,3.05 -23.81,4.58 -37.73,4.58zm278.36 0c-13.18,0 -24.97,-1.28 -35.34,-3.85 -10.38,-2.56 -19.65,-5.92 -27.84,-10.07 -8.18,-4.15 -15.32,-8.92 -21.43,-14.29 -6.1,-5.37 -11.36,-10.87 -15.75,-16.48 -10.26,-13.19 -17.7,-28.2 -22.35,-45.05l69.59 0c2.2,6.1 5.49,11.36 9.89,15.75 3.91,3.91 9.34,7.45 16.3,10.62 6.96,3.18 15.93,4.76 26.92,4.76 13.67,0 23.51,-2.26 29.49,-6.78 5.98,-4.51 8.97,-9.58 8.97,-15.2 0,-6.59 -3.72,-11.78 -11.17,-15.57 -7.45,-3.78 -16.85,-7.14 -28.2,-10.07 -11.36,-2.93 -23.57,-6.04 -36.63,-9.34 -13.07,-3.3 -25.28,-7.94 -36.63,-13.92 -11.36,-5.98 -20.76,-13.73 -28.2,-23.26 -7.45,-9.52 -11.17,-22.1 -11.17,-37.73 0,-10.5 2.38,-20.63 7.15,-30.4 4.76,-9.77 11.66,-18.38 20.69,-25.82 9.03,-7.45 20.14,-13.37 33.33,-17.77 13.18,-4.4 28.2,-6.59 45.05,-6.59 12.45,0 23.56,1.16 33.33,3.48 9.77,2.32 18.38,5.37 25.83,9.16 7.45,3.78 13.98,8.06 19.6,12.82 5.61,4.76 10.38,9.7 14.28,14.83 9.03,11.72 15.26,25.15 18.68,40.29l-69.59 0c-1.47,-4.15 -3.91,-7.82 -7.33,-10.99 -2.93,-2.69 -7.14,-5.19 -12.64,-7.51 -5.49,-2.32 -12.88,-3.48 -22.16,-3.48 -12.94,0 -21.98,1.89 -27.1,5.68 -5.13,3.78 -7.69,8 -7.69,12.64 0,5.13 2.2,9.28 6.59,12.45 4.39,3.18 10.13,5.98 17.21,8.43 7.08,2.44 15.2,4.76 24.36,6.96 9.16,2.2 18.44,4.64 27.84,7.32 9.4,2.69 18.68,5.86 27.84,9.52 9.16,3.66 17.28,8.43 24.36,14.29 7.08,5.86 12.82,12.88 17.21,21.06 4.4,8.18 6.59,18.13 6.59,29.85 0,10.99 -2.32,21.55 -6.96,31.68 -4.64,10.13 -11.54,19.11 -20.69,26.92 -9.16,7.81 -20.57,14.04 -34.25,18.68 -13.67,4.64 -29.67,6.96 -47.98,6.96zm225.26 -197.79l64.1 0 31.13 135.52 16.48 0 31.13 -135.52 64.1 0 -47.62 190.46 -111.72 0 -47.61 -190.46zm221.6 131.86l86.07 -53.11c10.01,-6.11 18.5,-11.78 25.45,-17.03 6.96,-5.25 12.64,-10.26 17.03,-15.02 4.4,-4.76 7.57,-9.4 9.52,-13.92 1.96,-4.51 2.93,-9.34 2.93,-14.47 0,-8.3 -2.93,-15.26 -8.79,-20.88 -5.86,-5.62 -13.92,-8.43 -24.17,-8.43 -9.28,0 -16.61,1.52 -21.98,4.58 -5.37,3.05 -9.4,6.41 -12.09,10.07 -3.18,4.4 -5.25,9.28 -6.23,14.65l-69.59 0c2.69,-17.09 8.43,-32.35 17.21,-45.78 3.66,-5.62 8.18,-11.17 13.55,-16.66 5.37,-5.49 11.84,-10.38 19.41,-14.65 7.57,-4.27 16.24,-7.75 26.01,-10.44 9.76,-2.69 21,-4.03 33.7,-4.03 16.36,0 31.01,2.26 43.95,6.78 12.94,4.51 23.93,10.74 32.97,18.68 9.03,7.94 15.87,17.21 20.51,27.84 4.64,10.62 6.96,22.16 6.96,34.61 0,10.99 -1.65,21.06 -4.95,30.22 -3.29,9.16 -8.06,17.64 -14.28,25.46 -6.22,7.81 -13.73,15.08 -22.53,21.79 -8.79,6.71 -18.68,13.25 -29.67,19.6l-25.64 14.65 -14.65 5.49 0 3.67 25.64 -3.67 86.07 0 0 58.61 -212.44 0 0 -58.61z"/>
  </g>
 </g>
</svg>
