<?xml version="1.0" encoding="UTF-8"?>
<!DOCTYPE svg PUBLIC "-//W3C//DTD SVG 1.1//EN" "http://www.w3.org/Graphics/SVG/1.1/DTD/svg11.dtd">
<!-- Creator: CorelDRAW 2021 (64-Bit) -->
<svg xmlns="http://www.w3.org/2000/svg" xml:space="preserve" width="5.39376in" height="0.613654in" version="1.1" style="shape-rendering:geometricPrecision; text-rendering:geometricPrecision; image-rendering:optimizeQuality; fill-rule:evenodd; clip-rule:evenodd"
viewBox="0 0 6979.48 794.06"
 xmlns:xlink="http://www.w3.org/1999/xlink"
 xmlns:xodm="http://www.corel.com/coreldraw/odm/2003">
 <defs>
  <style type="text/css">
   <![CDATA[
    .fil1 {fill:white}
    .fil2 {fill:#1C180D;fill-rule:nonzero}
    .fil0 {fill:white;fill-rule:nonzero}
   ]]>
  </style>
 </defs>
 <g id="Layer_x0020_1">
  <metadata id="CorelCorpID_0Corel-Layer"/>
  <g id="logo">
   <path id="Z" class="fil0" d="M3560.36 657.33c147.84,-0.27 295.68,0 443.51,0 18.43,0.03 18.43,0.03 18.43,-18.36 0.01,-14.79 -0.01,-29.57 -0.01,-44.36 0,-18.18 0,-18.18 -18.4,-18.18 -91.47,0.03 -182.95,0.05 -274.42,0.08 -21.04,-0.08 -15.09,-5.16 0,-18.14 28.78,-24.04 292.82,-239.6 292.82,-247.8 0,-19.11 0,-35.31 0,-52.96 0,-18.26 0,-18.26 -18.36,-18.26 -147.8,0 -295.6,0 -443.4,0 -18.47,0 -18.47,0 -18.47,18.37 0,17.68 0,35.35 0,53.02 0,18.29 0,18.29 18.29,18.29 90,0 180,0 270,0 13.77,0 23.99,0 -0.01,18.29 -30.14,26.44 -287.23,239.14 -288.35,247.41 0,20.9 0,23.51 0,44.41 0.06,18.22 0.06,18.22 18.34,18.19z"/>
   <path id="a" class="fil0" d="M3177.86 657.33c129.19,0 185.47,-17.71 213.59,-46.58 0,9.41 0,18.84 0,28.26 0,18.36 0,18.36 18.26,18.32l72.82 0c18.41,0.04 18.41,0.04 18.45,-18.37 0.11,-54.1 1.04,-213.07 -3.16,-276.29 -11.54,-173.2 -480.95,-149.61 -506.17,-15.27 -0.72,2.71 0.87,18.05 18.31,18.05 23.52,0 47.04,0 70.56,0 24.09,0 12.23,-12.18 18.49,-18.14 41.06,-28.3 292.32,-35.41 293.12,50.11 -47.88,-4.56 -77.09,-9.17 -155.74,-8.36 -78.65,0.82 -271.31,41.78 -270.55,151.99 0.76,110.21 82.84,116.28 212.03,116.28zm58.52 -80.89c-41.35,0 -155.82,8.95 -155.82,-43.72 0,-65.69 107.2,-69.74 155.82,-69.94 48.62,-0.2 116.95,3.8 155.71,7.6 0,46.11 -25.11,77.85 -66.03,91.19 -31.06,10.13 -48.32,14.87 -89.67,14.87z"/>
   <path id="t" class="fil0" d="M2799.57 657.33c34.78,0 81.6,-0.06 107.06,-0.01 18.33,0.04 18.33,0.04 18.33,-18.22 0,-20.93 0,-41.86 0,-62.79 0,-18.17 0,-18.17 -18.24,-18.21 -101.05,-0.23 -153.03,-6.87 -153.03,-60.41 0,-36.04 0.05,-106.1 0.05,-150.64 0,-18.02 0,-18.02 18.15,-18.02 44.94,0 89.88,0 134.82,0 18.29,0 18.29,0 18.29,-18.29 0,-17.75 -0.11,-35.49 -0.11,-53.24 0,-18.14 0,-18.14 -18.29,-18.14 -44.84,0 -89.85,0 -134.69,0 -18.22,0 -18.22,0 -18.22,-17.23 0,-27.32 0,-44.52 0,-67.39 0,-18.16 0,-18.16 -18.26,-18.17 -24.63,-0.01 -49.26,0 -73.88,0 -18.05,0.01 -18.05,0.01 -18.05,18.29 0,20.22 -0.03,43.58 -0.01,67.26 0.01,17.23 0.01,17.23 -18.29,17.23 -18.05,0 -36.29,0 -54.34,0 -18.33,0 -18.27,-0.19 -18.27,18.3 0,17.63 0.04,35.45 0.04,53.08 -0.04,18.29 0,18.29 18.29,18.29 18.11,0 36.22,0 54.33,0 18.29,0 18.28,0.01 18.28,18.14l-0.04 150.9c-0.02,100.3 71.72,159.27 156.08,159.27z"/>
   <path id="p" class="fil0" d="M1979.18 794.04c24.56,0 49.1,0 73.66,0 18.26,0.14 18.26,0.14 18.24,-18.23 -0.08,-66.47 0.02,-132.83 0.02,-199.32 0,-15.24 7.17,-8.25 15.49,0.02 96.96,96.46 309.96,115.24 403.25,5.64 29,-34.07 46.16,-91.22 46.16,-148.97 0,-55.48 -16.45,-89.72 -43.88,-123.86 -77.1,-95.94 -316.76,-88.02 -405.53,-8.79 -2.56,2.28 -15.49,20.25 -15.49,0 0,-14.26 0,-28.75 0,-43.01 0,-18.11 0,-18.11 -18.36,-18.11 -24.51,0 -49.03,0 -73.55,0 -18.28,0 -18.28,0 -18.28,18.26 0,172.71 0,345.42 0,518.13 0,18.38 -0.03,18.23 18.27,18.23zm107.41 -360.78c0.07,-126.12 336.25,-152.78 337.14,0 -1.07,175.4 -337.21,126.12 -337.14,0z"/>
   <path id="i" class="fil0" d="M1827.86 657.74c24.57,0 49.14,0.01 73.71,0.01 18.3,0.03 18.3,0.03 18.24,-18.54 -0.41,-126.88 0.02,-254.42 0.06,-381.3 0.01,-18.13 0.01,-18.13 -18.44,-18.13 -24.46,0 -48.91,0 -73.38,0 -18.38,0 -18.38,0 -18.38,18.21 -0.03,126.88 -0.32,254.35 -0.04,381.22 0.04,18.57 0.04,18.57 18.22,18.53zm0.14 -435.2l73.52 0c18.36,0 18.36,0 18.36,-18.22 0,-16.38 0.01,-32.76 0.01,-49.15 -0.01,-18.18 -0.01,-18.18 -18.47,-18.19 -24.47,-0.01 -48.95,0 -73.43,0 -18.3,0.01 -18.3,0.01 -18.33,18.23 0,16.29 0,32.57 0,48.87 0.03,18.46 0.03,18.46 18.34,18.46z"/>
   <path id="r" class="fil0" d="M1401.34 657.56c24.55,0.01 49.1,0.02 73.64,0.03 18.29,0 18.21,0 18.29,-18.38l0.7 -161.76c0.4,-92.99 74.48,-148.19 159.59,-148.19 38.14,0 68.01,11.46 96.45,18.29 20.96,5.03 18.29,-18.29 18.29,-18.41 0,-23.75 0,-47.48 0,-71.23 0,-18.33 0,-18.33 -18.35,-18.33 -24.43,0 -49.56,-1.05 -88.04,0.5 -65.94,2.65 -124.5,24.76 -153.24,60.55 -17.52,21.82 -15.41,0.03 -15.41,0.03 0,-14.34 0,-28.68 0,-43.01 0,-18.08 0,-18.08 -18.27,-18.08 -24.56,0 -49.13,0 -73.69,0 -18.29,0 -18.29,0 -18.29,18.28 0,127.13 0,254.25 0,381.37 0,18.36 0,18.36 18.32,18.32z"/>
   <path id="K" class="fil0" d="M832.98 657.59c24.37,0 48.73,0 73.1,0 18.25,0 18.25,0 18.24,-18.29 0.01,-53.47 0.01,-107.17 0.02,-160.63 0,-18.54 0.44,-14.5 15.35,-26.58 7.81,-6.32 16.06,-12.34 23.87,-18.66 13.2,-10.69 13.2,-10.69 26.42,0 72.25,67.91 142.52,137.8 214.76,205.72 11.18,10.51 24.67,18.45 40.25,18.45 32.2,0 64.41,0 96.61,0 24.58,0 -0.04,-18.29 -0.04,-18.29 -90.42,-90.46 -175.03,-172.55 -267.21,-261.2 -14.95,-14.95 -15.6,-12.83 0.34,-24.68 92.09,-68.44 174.78,-129.89 266.87,-198.33 0,0 24.62,-18.29 0.11,-18.29 -32.26,0 -64.53,0 -96.79,0 -22.63,0 -23.06,5.7 -40.16,18.3l-255.57 188.34c0,0 -24.81,22.25 -24.81,-0.09 0,-62.69 0,-125.38 0,-188.07 0,-18.48 0,-18.48 -18.26,-18.47 -15.18,0.01 -48.57,0.02 -72.86,0.03 -18.34,-0.04 -18.34,-0.04 -18.34,18.25 0,161.41 0,322.83 0,484.24 0,18.26 0,18.26 18.11,18.26z"/>
   <path id="Leaf" class="fil1" d="M52.6 631.93c0,0 -41.63,-185.55 67.13,-312.08 108.77,-126.53 402.54,-189.65 431.12,-319.85 0,0 75.65,341.85 -109.05,523.86 -184.7,182.01 -427.75,182.82 -441.05,268.86 0,0 -20.62,-71.35 154.86,-167.17 233.48,-127.48 338.11,-294.62 338.11,-470.47 0,-27.03 -16.83,-20.52 -20.33,0 -14.1,79.78 -77.87,326.92 -420.79,476.84z"/>
  </g>
  <rect class="fil1" x="4269.51" y="239.35" width="2709.97" height="418.65"/>
  <path class="fil2" d="M4358.57 600.18c-10.51,0 -19.37,-3.6 -26.56,-10.8 -7.2,-7.19 -10.79,-16.05 -10.79,-26.56 0,-10.51 3.59,-19.37 10.79,-26.56 7.19,-7.2 16.05,-10.79 26.56,-10.79 10.52,0 19.37,3.59 26.56,10.79 7.19,7.19 10.8,16.05 10.8,26.56 0,10.51 -3.6,19.37 -10.8,26.56 -7.19,7.19 -16.04,10.8 -26.56,10.8zm199.23 2.07c-14.94,0 -28.29,-1.45 -40.05,-4.36 -11.77,-2.9 -22.28,-6.71 -31.55,-11.41 -9.27,-4.7 -17.36,-10.1 -24.28,-16.19 -6.91,-6.08 -12.86,-12.31 -17.85,-18.67 -11.62,-14.94 -20.07,-31.96 -25.32,-51.06l78.86 0c2.49,6.92 6.23,12.87 11.21,17.85 4.42,4.43 10.59,8.44 18.47,12.03 7.88,3.6 18.05,5.4 30.5,5.4 15.49,0 26.64,-2.56 33.41,-7.68 6.78,-5.11 10.17,-10.86 10.17,-17.22 0,-7.47 -4.22,-13.35 -12.66,-17.64 -8.44,-4.28 -19.09,-8.1 -31.96,-11.42 -12.87,-3.32 -26.7,-6.85 -41.5,-10.58 -14.81,-3.73 -28.64,-8.99 -41.51,-15.77 -12.87,-6.79 -23.52,-15.57 -31.96,-26.36 -8.44,-10.8 -12.66,-25.04 -12.66,-42.75 0,-11.9 2.7,-23.38 8.1,-34.45 5.4,-11.07 13.21,-20.83 23.44,-29.26 10.24,-8.44 22.83,-15.15 37.78,-20.13 14.94,-4.98 31.96,-7.47 51.05,-7.47 14.12,0 26.71,1.31 37.78,3.94 11.07,2.63 20.82,6.08 29.26,10.37 8.45,4.29 15.84,9.13 22.21,14.52 6.36,5.4 11.76,11 16.19,16.81 10.24,13.29 17.29,28.5 21.17,45.66l-78.86 0c-1.66,-4.7 -4.43,-8.85 -8.3,-12.45 -3.32,-3.05 -8.1,-5.88 -14.32,-8.51 -6.23,-2.63 -14.6,-3.94 -25.12,-3.94 -14.66,0 -24.9,2.14 -30.71,6.43 -5.81,4.29 -8.72,9.06 -8.72,14.32 0,5.81 2.49,10.51 7.47,14.11 4.98,3.6 11.48,6.79 19.5,9.55 8.03,2.77 17.22,5.4 27.6,7.89 10.38,2.49 20.89,5.26 31.55,8.3 10.65,3.04 21.16,6.64 31.54,10.79 10.38,4.15 19.58,9.55 27.6,16.19 8.02,6.64 14.53,14.59 19.51,23.86 4.98,9.27 7.47,20.55 7.47,33.83 0,12.46 -2.63,24.42 -7.89,35.91 -5.26,11.48 -13.07,21.65 -23.45,30.5 -10.38,8.85 -23.31,15.91 -38.8,21.17 -15.5,5.26 -33.62,7.89 -54.38,7.89zm265.64 -2.07c-16.6,0 -32.03,-2.91 -46.28,-8.72 -14.25,-5.81 -26.57,-13.84 -36.94,-24.08 -10.37,-10.23 -18.46,-22.34 -24.28,-36.31 -5.81,-13.98 -8.72,-28.99 -8.72,-45.04l0 -12.45 161.87 0c-2.21,-14.67 -7.26,-25.94 -15.15,-33.82 -7.89,-7.89 -18.05,-11.83 -30.51,-11.83 -7.19,0 -13.35,1.18 -18.47,3.53 -5.13,2.35 -9.2,5.05 -12.25,8.1 -3.6,3.32 -6.5,7.06 -8.72,11.21l-72.63 0c2.49,-9.96 6.91,-19.64 13.28,-29.06 6.36,-9.4 14.39,-17.77 24.07,-25.11 9.69,-7.33 20.83,-13.28 33.41,-17.84 12.59,-4.57 26.36,-6.85 41.3,-6.85 16.6,0 32.1,3.04 46.49,9.13 14.39,6.08 26.91,14.31 37.56,24.69 10.65,10.38 19.03,22.49 25.11,36.32 6.09,13.83 9.13,28.5 9.13,43.99 0,15.5 -3.04,30.16 -9.13,44 -6.08,13.84 -14.46,25.94 -25.11,36.31 -10.65,10.38 -23.17,18.61 -37.56,24.7 -14.39,6.09 -29.88,9.13 -46.49,9.13zm0 -56.03c11.62,0 21.24,-3.53 28.84,-10.58 7.61,-7.06 12.53,-15.29 14.74,-24.7l-87.16 0c2.21,9.41 7.13,17.64 14.73,24.7 7.61,7.06 17.22,10.58 28.84,10.58zm151.5 -166.02l70.56 0 0 29.05 4.15 0c3.87,-6.64 8.85,-12.46 14.94,-17.44 5.25,-4.42 11.9,-8.5 19.92,-12.24 8.03,-3.73 17.85,-5.6 29.47,-5.6 25.18,0 44.96,7.53 59.35,22.61 14.39,15.09 21.59,37.29 21.59,66.63l0 132.81 -70.56 0 0 -122.45c0,-12.45 -3.32,-22.14 -9.96,-29.05 -6.64,-6.92 -15.77,-10.38 -27.39,-10.38 -11.62,0 -21.44,4.29 -29.47,12.87 -8.02,8.57 -12.04,20.2 -12.04,34.86l0 114.14 -70.56 0 0 -215.83zm367.32 222.06c-16.6,0 -32.02,-2.91 -46.27,-8.72 -14.25,-5.81 -26.57,-13.84 -36.94,-24.08 -10.37,-10.23 -18.46,-22.34 -24.28,-36.31 -5.81,-13.98 -8.72,-28.99 -8.72,-45.04l0 -12.45 161.87 0c-2.21,-14.67 -7.26,-25.94 -15.15,-33.82 -7.89,-7.89 -18.05,-11.83 -30.51,-11.83 -7.19,0 -13.35,1.18 -18.46,3.53 -5.13,2.35 -9.21,5.05 -12.25,8.1 -3.6,3.32 -6.51,7.06 -8.72,11.21l-72.63 0c2.49,-9.96 6.91,-19.64 13.28,-29.06 6.36,-9.4 14.39,-17.77 24.07,-25.11 9.69,-7.33 20.83,-13.28 33.41,-17.84 12.59,-4.57 26.36,-6.85 41.3,-6.85 16.6,0 32.1,3.04 46.49,9.13 14.39,6.08 26.91,14.31 37.56,24.69 10.66,10.38 19.03,22.49 25.12,36.32 6.09,13.83 9.13,28.5 9.13,43.99 0,15.5 -3.04,30.16 -9.13,44 -6.08,13.84 -14.46,25.94 -25.12,36.31 -10.65,10.38 -23.17,18.61 -37.56,24.7 -14.39,6.09 -29.89,9.13 -46.49,9.13zm0 -56.03c11.63,0 21.24,-3.53 28.85,-10.58 7.61,-7.06 12.52,-15.29 14.74,-24.7l-87.17 0c2.21,9.41 7.13,17.64 14.74,24.7 7.61,7.06 17.22,10.58 28.84,10.58zm238.66 56.03c-13.01,0 -25.25,-2.63 -36.74,-7.89 -11.48,-5.26 -21.59,-12.8 -30.3,-22.62 -8.72,-9.82 -15.63,-21.78 -20.75,-35.9 -5.13,-14.11 -7.68,-30.02 -7.68,-47.74 0,-17.7 2.56,-33.61 7.68,-47.73 5.11,-14.11 12.03,-26.08 20.75,-35.9 8.71,-9.82 18.82,-17.37 30.3,-22.62 11.49,-5.26 23.73,-7.89 36.74,-7.89 10.79,0 20.19,1.87 28.22,5.6 8.03,3.73 14.81,7.81 20.34,12.24 6.36,4.98 11.62,10.8 15.77,17.44l4.15 0 0 -103.77 70.56 0 0 290.54 -70.56 0 0 -29.05 -4.15 0c-4.15,6.92 -9.41,12.87 -15.77,17.85 -5.53,4.43 -12.31,8.44 -20.34,12.03 -8.02,3.6 -17.43,5.4 -28.22,5.4zm22.82 -60.19c13.56,0 24.56,-4.56 33,-13.69 8.44,-9.13 12.66,-22.55 12.66,-40.27 0,-17.7 -4.22,-31.12 -12.66,-40.26 -8.44,-9.13 -19.44,-13.7 -33,-13.7 -13.56,0 -24.56,4.57 -32.99,13.7 -8.44,9.13 -12.66,22.55 -12.66,40.26 0,17.71 4.22,31.13 12.66,40.27 8.44,9.13 19.44,13.69 32.99,13.69zm157.73 -236.59l70.56 0 0 234.51 47.73 0 0 56.03 -118.29 0 0 -290.54zm251.1 296.77c-16.6,0 -32.02,-2.91 -46.27,-8.72 -14.25,-5.81 -26.57,-13.84 -36.94,-24.08 -10.37,-10.23 -18.47,-22.34 -24.28,-36.31 -5.81,-13.98 -8.72,-28.99 -8.72,-45.04l0 -12.45 161.87 0c-2.21,-14.67 -7.26,-25.94 -15.15,-33.82 -7.89,-7.89 -18.05,-11.83 -30.51,-11.83 -7.19,0 -13.35,1.18 -18.46,3.53 -5.13,2.35 -9.21,5.05 -12.25,8.1 -3.6,3.32 -6.51,7.06 -8.72,11.21l-72.63 0c2.49,-9.96 6.91,-19.64 13.28,-29.06 6.36,-9.4 14.39,-17.77 24.07,-25.11 9.69,-7.33 20.83,-13.28 33.41,-17.84 12.59,-4.57 26.36,-6.85 41.3,-6.85 16.6,0 32.1,3.04 46.49,9.13 14.39,6.08 26.91,14.31 37.56,24.69 10.66,10.38 19.03,22.49 25.12,36.32 6.09,13.83 9.13,28.5 9.13,43.99 0,15.5 -3.04,30.16 -9.13,44 -6.08,13.84 -14.46,25.94 -25.12,36.31 -10.65,10.38 -23.17,18.61 -37.56,24.7 -14.39,6.09 -29.89,9.13 -46.49,9.13zm0 -56.03c11.63,0 21.24,-3.53 28.85,-10.58 7.61,-7.06 12.52,-15.29 14.73,-24.7l-87.16 0c2.21,9.41 7.13,17.64 14.74,24.7 7.61,7.06 17.22,10.58 28.84,10.58zm151.5 -166.02l68.48 0 0 31.13 4.15 0c2.49,-6.64 6.23,-12.45 11.21,-17.43 4.15,-4.42 9.55,-8.85 16.19,-13.28 6.63,-4.43 15.08,-6.64 25.31,-6.64l22 0 0 68.48 -35.28 0c-12.45,0 -22.48,3.87 -30.09,11.55 -7.61,7.75 -11.41,17.92 -11.41,30.51l0 111.51 -70.56 0 0 -215.83zm271.86 0l72.64 0 35.28 153.57 18.67 0 35.28 -153.57 72.63 0 -53.96 215.83 -126.6 0 -53.96 -215.83zm251.11 149.42l97.54 -60.18c11.35,-6.92 20.96,-13.35 28.84,-19.3 7.89,-5.95 14.32,-11.62 19.3,-17.02 4.98,-5.4 8.58,-10.66 10.79,-15.78 2.21,-5.11 3.32,-10.58 3.32,-16.39 0,-9.4 -3.32,-17.29 -9.96,-23.65 -6.64,-6.37 -15.77,-9.55 -27.39,-9.55 -10.51,0 -18.81,1.73 -24.9,5.19 -6.09,3.46 -10.65,7.26 -13.69,11.42 -3.6,4.98 -5.95,10.51 -7.06,16.6l-78.86 0c3.04,-19.37 9.55,-36.66 19.51,-51.88 4.15,-6.36 9.27,-12.66 15.35,-18.89 6.09,-6.23 13.42,-11.76 22,-16.6 8.58,-4.84 18.4,-8.78 29.47,-11.82 11.07,-3.05 23.8,-4.56 38.18,-4.56 18.54,0 35.15,2.55 49.81,7.68 14.67,5.12 27.12,12.18 37.35,21.16 10.24,9 17.98,19.51 23.25,31.55 5.26,12.04 7.89,25.11 7.89,39.22 0,12.46 -1.87,23.87 -5.6,34.24 -3.73,10.38 -9.13,19.99 -16.19,28.85 -7.06,8.85 -15.56,17.08 -25.53,24.69 -9.95,7.61 -21.16,15.01 -33.61,22.21l-29.06 16.6 -16.6 6.23 0 4.15 29.06 -4.15 97.54 0 0 66.41 -240.73 0 0 -66.41z"/>
 </g>
</svg>
